<svg width="174px" height="40px" viewBox="0 0 174 40" version="1.1" xmlns="http://www.w3.org/2000/svg" xmlns:xlink="http://www.w3.org/1999/xlink">
    <defs>
        <polygon id="path-1" points="0.0875249205 0.000807401177 18.0156975 0.000807401177 18.0156975 22.6887693 0.0875249205 22.6887693"></polygon>
        <polygon id="path-3" points="0.492888725 0.275349417 12.1706951 0.275349417 12.1706951 12.6829268 0.492888725 12.6829268"></polygon>
        <polygon id="path-5" points="0.326953437 0.512690727 8.37738359 0.512690727 8.37738359 12.4180122 0.326953437 12.4180122"></polygon>
        <polygon id="path-7" points="0 40 173.658537 40 173.658537 0 0 0"></polygon>
    </defs>
    <g id="Welcome" stroke="none" stroke-width="1" fill="none" fill-rule="evenodd">
        <g id="Desktop-HD" transform="translate(-40.000000, -75.000000)">
            <g id="navigation" transform="translate(0.000000, 50.000000)">
                <g id="logo" transform="translate(40.000000, 25.000000)">
                    <path d="M154.146341,0.00396335649 C155.683453,0.00396335649 157.166176,-0.0134358684 158.648898,0.0246767194 C158.858923,0.0296479265 159.124173,0.267437333 159.257216,0.467942686 C162.354868,5.13673469 165.435785,9.81795471 168.521723,14.4950321 C168.706645,14.7742482 168.899934,15.0484931 169.236308,15.3020247 C169.246349,15.0733492 169.266431,14.8446736 169.266431,14.6168266 C169.268104,10.0458017 169.267268,5.47477677 169.268104,0.902923308 C169.268104,0.0296479265 169.269778,0.0279908575 170.175142,0.0279908575 L173.658537,0.0279908575 L173.658537,22.3826807 C173.437634,22.3951087 173.197487,22.4216218 172.956503,22.4224503 C171.837767,22.426593 170.71652,22.3926231 169.598621,22.4373639 C169.064774,22.4597344 168.774421,22.2559149 168.49662,21.8350193 C165.468418,17.2267104 162.423482,12.6308294 159.381055,8.03329136 C159.174378,7.72093385 158.956823,7.41520461 158.581121,7.15835891 L158.581121,22.3478822 L154.146341,22.3478822 L154.146341,0.00396335649 Z" id="Fill-1" fill="#1D1D1B"></path>
                    <path d="M80.5725321,3.88098803 C80.5709144,3.90504651 80.5684878,3.9315938 80.5668701,3.95648188 C79.7054432,3.95648188 78.8440164,3.96394831 77.9825895,3.95233387 C77.6339745,3.94569705 77.4552183,4.04193097 77.4576204,4.44677711 C77.4697776,6.1906021 77.467351,7.9369159 77.4584537,9.67991129 C77.4560271,10.0548917 77.5919142,10.2083682 77.9623682,10.2042202 C79.641544,10.1851394 81.3255729,10.2564852 82.9982778,10.1544441 C85.3204906,10.012582 86.2773619,8.64954467 85.857568,6.30508728 C85.6464577,5.12788097 85.0034208,4.33478074 83.8629401,4.14563131 C82.7798879,3.96726672 81.6701436,3.96394831 80.5725321,3.88098803 L80.5725321,3.88098803 Z M73.1707317,0.0059135613 L73.855829,0.0059135613 C76.79196,0.00674316405 79.7305176,-0.0156561103 82.6666487,0.0216760136 C83.6105784,0.0324608495 84.5674498,0.123717153 85.4903494,0.317014594 C88.0050688,0.850449166 89.6429932,2.40014711 90.1153624,5.01837341 C90.5788344,7.59097155 90.4874342,10.1179415 88.559941,12.1338762 C87.9597731,12.7627151 87.1355534,13.1683909 86.3169957,13.7474536 C87.7341035,16.5307708 89.1948894,19.4053444 90.7317073,22.4267576 L88.9271595,22.4267576 C88.1094107,22.4267576 87.2916618,22.4010399 86.4763394,22.4358833 C86.0395596,22.4557937 85.808228,22.3039764 85.6108683,21.8991303 C84.4388424,19.4883047 83.2279917,17.0998783 82.0551569,14.6882231 C81.8391936,14.243556 81.5868319,14.0610434 81.0934325,14.0826131 C80.1017805,14.1249229 79.1060842,14.1282413 78.1128146,14.0826131 C77.5668398,14.0585546 77.4471298,14.2676145 77.4527917,14.7827978 C77.473013,17.0932415 77.4447032,19.4036852 77.473013,21.71164 C77.4802927,22.2799179 77.3136693,22.4574529 76.7628414,22.4375425 C75.5778739,22.3993807 74.3912887,22.4267576 73.1707317,22.4267576 L73.1707317,0.0059135613 Z" id="Fill-3" fill="#1D1D1B"></path>
                    <path d="M69.218034,0 L69.218034,3.91988459 L68.409432,3.91988459 C65.4784515,3.91988459 62.546664,3.93406591 59.6164904,3.90987425 C59.0790364,3.90486907 58.8789034,4.04918489 58.8982711,4.63228754 C58.9378135,5.83770001 58.9345856,7.04644927 58.8990781,8.25436434 C58.8829383,8.80576756 59.0725805,8.95008337 59.5842109,8.94841498 C62.2287107,8.92422331 64.8732105,8.93757044 67.5185172,8.93757044 L68.3271192,8.93757044 L68.3271192,12.8924912 L67.5540247,12.8924912 C64.9095249,12.8924912 62.2642182,12.9058384 59.6197184,12.8808125 C59.0846853,12.8774757 58.8837453,13.0201232 58.8982711,13.6048942 C58.9345856,15.0155188 58.9313576,16.4294801 58.8990781,17.8426073 C58.8869733,18.3848343 59.0612827,18.5399947 59.577755,18.5358237 C62.5523129,18.5124662 65.5284848,18.5441657 68.5030426,18.5091295 C69.1349143,18.5024559 69.2914699,18.7168441 69.2656463,19.326641 C69.222876,20.3443595 69.2543485,21.3654148 69.2543485,22.4390244 L54.6341463,22.4390244 L54.6341463,0 L69.218034,0 Z" id="Fill-5" fill="#1D1D1B"></path>
                    <path d="M149.21642,0 L149.21642,3.91988459 L148.409432,3.91988459 C145.477645,3.91988459 142.546664,3.93406591 139.616491,3.90987425 C139.07823,3.90486907 138.878903,4.04918489 138.897464,4.63228754 C138.937814,5.83770001 138.934586,7.04644927 138.899078,8.25436434 C138.882131,8.80576756 139.072581,8.95008337 139.583404,8.94841498 C142.228711,8.92422331 144.873211,8.93757044 147.518517,8.93757044 L148.325505,8.93757044 L148.325505,12.8924912 L147.553218,12.8924912 C144.909525,12.8924912 142.264218,12.9058384 139.619718,12.8808125 C139.084685,12.8774757 138.882131,13.0201232 138.897464,13.6048942 C138.934586,15.0155188 138.931358,16.4294801 138.899078,17.8426073 C138.886166,18.3848343 139.060476,18.5399947 139.576948,18.5358237 C142.551506,18.5124662 145.528485,18.5441657 148.502236,18.5091295 C149.134915,18.5024559 149.29147,18.7168441 149.265647,19.326641 C149.222876,20.3443595 149.253542,21.3654148 149.253542,22.4390244 L134.634146,22.4390244 L134.634146,0 L149.21642,0 Z" id="Fill-7" fill="#1D1D1B"></path>
                    <g id="Group-11" transform="translate(92.682927, 0.000000)">
                        <mask id="mask-2" fill="white">
                            <use xlink:href="#path-1"></use>
                        </mask>
                        <g id="Clip-10"></g>
                        <path d="M0.0875249205,18.5227519 C0.928924708,17.5885887 1.72196819,16.7085214 2.57062142,15.7670917 C2.80031389,15.9858974 2.99776882,16.1804811 3.19925345,16.3669907 C5.16735525,18.2119024 7.48039873,19.1024659 10.1819046,18.8747788 C11.1401654,18.7940387 12.0452344,18.5203297 12.7754146,17.8477645 C14.1052131,16.6221295 13.8384475,14.6875963 12.1580657,14.0594382 C10.8073128,13.5548124 9.3598473,13.3101699 7.96960339,12.9008175 C6.76956098,12.549598 5.55339979,12.2145265 4.40977306,11.71636 C2.48841569,10.8815071 1.0836649,9.5452582 0.929730647,7.29422372 C0.754841994,4.73879899 1.73728102,2.72837006 3.91573277,1.36709167 C5.73554189,0.230270816 7.76489502,-0.091882254 9.87242418,0.021961312 C12.3821166,0.154375105 14.7354571,0.778496215 16.753527,2.37149874 C16.9598473,2.53378638 17.1548844,2.71464424 17.3475037,2.8946947 C17.4409926,2.98270143 17.5159449,3.09170059 17.6497306,3.25237342 C16.8284793,4.14374432 16.0168993,5.02704121 15.3221803,5.78357611 C14.055245,5.19336585 12.9293489,4.5369487 11.7172174,4.14212952 C10.1698155,3.64154079 8.55471474,3.5777561 6.98555249,4.18169218 C6.1377052,4.50949706 5.52035631,5.07548528 5.29227572,5.98381161 C5.0343754,7.01163331 5.3003351,7.71810934 6.29244539,8.05964003 C7.76328314,8.56426577 9.29134252,8.90337426 10.7879703,9.3369487 C11.9904305,9.68655341 13.216263,9.98286964 14.3703669,10.4527771 C19.2793383,12.4519024 18.5999321,18.1440807 16.0217349,20.4459815 C14.4356479,21.8621632 12.5570053,22.5436098 10.4929968,22.6606829 C6.72362248,22.876259 3.35399364,21.8653928 0.621862142,19.1242658 C0.452615058,18.9547115 0.30190456,18.7657796 0.0875249205,18.5227519" id="Fill-9" fill="#1D1D1B" mask="url(#mask-2)"></path>
                    </g>
                    <path d="M36.097561,0 L50.7317073,0 L50.7317073,3.9303204 L49.9333929,3.9303204 C46.9965342,3.9303204 44.0588666,3.94776265 41.1220078,3.91786165 C40.5315625,3.9103864 40.3608996,4.0848089 40.3835468,4.68365949 C40.4264147,5.90461701 40.4280324,7.13388036 40.382738,8.35732963 C40.3592819,8.97694481 40.576857,9.11565223 41.1414197,9.10983815 C43.7693057,9.0824289 46.3980006,9.09654881 49.0266954,9.09654881 L49.8913338,9.09654881 C49.8913338,10.3465767 49.9075104,11.5185299 49.8646424,12.6871606 C49.8605983,12.8067646 49.4933898,13.0019517 49.2919914,13.005274 C47.4381549,13.0301915 45.5818919,13.0210551 43.7272466,13.0210551 C42.9095203,13.0210551 42.0926029,13.0202245 41.2740677,13.0210551 C40.3964881,13.0218857 40.3948704,13.0227163 40.3948704,13.8956594 C40.3948704,16.4820959 40.3738408,19.0660407 40.411047,21.6516467 C40.4207529,22.3019934 40.2096485,22.4573125 39.6200121,22.4373785 C38.4577245,22.3958494 37.2930105,22.4240892 36.097561,22.4240892 L36.097561,0 Z" id="Fill-12" fill="#1D1D1B"></path>
                    <path d="M119.795963,3.94920973 L113.170732,3.94920973 L113.170732,0.0141402817 L113.913898,0.0141402817 C119.251402,0.0141402817 124.588105,0.0257481561 129.925609,0 C130.559863,-0.00327153004 130.768878,0.17582139 130.726434,0.833324566 C130.67358,1.66826239 130.6928,2.51066243 130.720829,3.34560026 C130.737646,3.82815618 130.560663,3.97076721 130.110599,3.96662154 C128.31675,3.94755146 126.522099,3.97905855 124.72905,3.94755146 C124.178883,3.93677272 124.029128,4.12166958 124.031531,4.68133495 C124.04995,10.3202745 124.031531,15.958385 124.056356,21.5973246 C124.057958,22.244049 123.905801,22.4662569 123.261937,22.4364081 C122.133574,22.3825144 121.000405,22.4206546 119.795963,22.4206546 L119.795963,3.94920973 Z" id="Fill-14" fill="#1D1D1B"></path>
                    <path d="M45.3136633,30.423192 C45.0618749,31.4874639 44.8076961,32.5492098 44.5567045,33.6126397 C44.0842029,35.6098335 43.6093108,37.6061853 43.1463708,39.605063 C43.0826269,39.8829188 42.9822302,40.0100589 42.6882115,39.9974291 C42.0228845,39.9738534 41.3551672,39.9713275 40.690637,39.999113 C40.3830727,40.0134268 40.3121576,39.8534492 40.2452265,39.5949592 C39.4205398,36.3861457 38.5878851,33.1815423 37.7568241,29.9769388 C37.5329236,29.1139019 37.3114136,28.2533909 37.0731707,27.3314148 C37.8890926,27.3314148 38.6707522,27.322995 39.4532086,27.3465706 C39.5217333,27.3490966 39.6205363,27.5385437 39.6484243,27.6581059 C40.2516009,30.226167 40.8468096,32.7950701 41.4444086,35.3648152 C41.5296661,35.7352896 41.6220948,36.1015541 41.7814545,36.4661345 C42.0436013,35.3664992 42.3089353,34.2693898 42.5694885,33.1722804 C43.0021502,31.35022 43.4372023,29.5281596 43.857912,27.7027312 C43.9240463,27.4172975 44.036395,27.3095232 44.3240393,27.317943 C45.0252222,27.3415187 45.7287955,27.3406767 46.4299784,27.317943 C46.7040771,27.3112072 46.8052706,27.4181395 46.8682177,27.6867335 C47.551871,30.6033773 48.2458827,33.5158112 48.965392,36.5503333 C49.0347135,36.3432044 49.0785374,36.23964 49.104035,36.1310236 C49.7605971,33.3415198 50.4211433,30.5494901 51.0617695,27.7540924 C51.1398558,27.4122456 51.269734,27.3061552 51.594031,27.317943 C52.267326,27.3440447 52.9422145,27.3246789 53.6585366,27.3246789 C53.3461915,28.5329307 53.0513759,29.6763493 52.7549668,30.822294 C51.9908368,33.7692494 51.2227228,36.7145208 50.4681544,39.6631601 C50.4004265,39.9292281 50.2880779,40.002481 50.0426639,39.9957451 C49.3765401,39.9805893 48.7104164,39.9772214 48.0442926,39.9957451 C47.7717875,40.0050069 47.6713908,39.9031265 47.6068501,39.6286386 C46.9112448,36.6614756 46.2012971,33.7010484 45.4945367,30.7372533 C45.4682423,30.6294789 45.4331832,30.5242305 45.4029048,30.4172981 C45.3734232,30.4198241 45.3431449,30.4215081 45.3136633,30.423192" id="Fill-16" fill="#1D1D1B"></path>
                    <path d="M117.073171,27.3307944 C117.871397,27.3307944 118.634466,27.3223745 119.395937,27.3451084 C119.47504,27.3467924 119.592497,27.5151915 119.618865,27.626335 C120.286051,30.4554413 120.943649,33.2862316 121.602845,36.1195479 C121.628413,36.2281654 121.659575,36.3367829 121.760252,36.4580303 C121.877709,35.9823026 121.997563,35.5091009 122.111824,35.0325312 C122.695911,32.5764291 123.282395,30.120327 123.858493,27.6633828 C123.91842,27.4074161 124.0167,27.3131125 124.275584,27.3198485 C124.99151,27.3408984 125.709035,27.3417404 126.424962,27.3198485 C126.700625,27.3131125 126.798905,27.418362 126.862028,27.6920107 C127.518827,30.4975411 128.187611,33.3005456 128.854797,36.102708 C128.880366,36.2113255 128.921116,36.315733 128.973852,36.4816062 C129.029784,36.3670947 129.072132,36.311523 129.086514,36.2492153 C129.748906,33.4302129 130.41769,30.6137366 131.059308,27.7913662 C131.144803,27.41331 131.287829,27.3046926 131.6394,27.3181645 C132.292204,27.3484764 132.945806,27.3265845 133.658537,27.3265845 C133.554663,27.7568444 133.469967,28.1340586 133.371687,28.5087467 C132.410459,32.2101608 131.443639,35.909049 130.492,39.6113051 C130.41769,39.8984257 130.313018,40.0087271 130.026168,39.9994652 C129.370967,39.9784153 128.714169,39.9809413 128.058968,39.9977812 C127.801682,40.0036752 127.679431,39.9363155 127.610715,39.6441429 C126.910769,36.6660033 126.192445,33.6920737 125.478117,30.7156181 C125.449352,30.5968966 125.411798,30.4790172 125.347077,30.2525203 C125.029065,31.5887678 124.73742,32.8138719 124.445776,34.039818 C123.996724,35.9242049 123.542878,37.8085918 123.105811,39.6980306 C123.049879,39.9396835 122.948403,39.9994652 122.734264,39.9952552 C122.029524,39.9851512 121.324784,39.9851512 120.620044,39.9952552 C120.424282,39.9986232 120.310022,39.9506294 120.252492,39.7325525 C119.205769,35.6707641 118.152654,31.6148697 117.101137,27.5564494 C117.089151,27.5076136 117.089151,27.4545678 117.073171,27.3307944" id="Fill-18" fill="#1D1D1B"></path>
                    <path d="M76.5364317,33.0321167 C76.644006,33.0548611 76.7030505,33.0801326 76.7612862,33.0801326 C77.6841603,33.0801326 78.6062256,33.087714 79.527482,33.0649697 C79.8178517,33.0582306 80.1219714,33.0102148 80.3913116,32.9032322 C81.0594045,32.634512 81.3627154,31.9142747 81.2324939,31.0095555 C81.108743,30.1511674 80.6185926,29.6314172 79.7871162,29.5909829 C78.7930651,29.542967 77.7957787,29.5682385 76.80011,29.5505485 C76.5809173,29.5471789 76.5323875,29.6524768 76.5339666,29.8554911 C76.5412847,30.5327669 76.5364317,31.2125698 76.5364317,31.8915304 L76.5364317,33.0321167 Z M74.1463415,27.3418207 C74.2838424,27.3342392 74.4027403,27.3241306 74.522447,27.3241306 C76.1700321,27.3224459 77.8176171,27.3055982 79.4643933,27.3308697 C80.0249119,27.3392935 80.5991807,27.393206 81.1427139,27.5296721 C82.7336809,27.9272768 83.6242018,29.1276723 83.6775845,30.9876536 C83.6961876,31.6295493 83.5910398,32.2891351 83.4422152,32.9150255 C83.2294931,33.8113209 82.6414743,34.421206 81.8439688,34.8137564 C81.7145561,34.8769351 81.5843346,34.9401139 81.4233776,35.0150859 C82.2524275,36.6686834 83.0636832,38.2852161 83.902439,39.9598732 C83.7358202,39.9725089 83.6225841,39.9910413 83.5085392,39.9918837 C82.8687553,39.9944109 82.2297803,39.9784056 81.5908052,39.9994652 C81.3198475,40.007889 81.1718317,39.917754 81.0505073,39.6616696 C80.4042528,38.3121723 79.7345423,36.9727836 79.0890966,35.6199168 C78.9693899,35.3680443 78.8326977,35.266116 78.556887,35.2762246 C77.908206,35.2981266 77.2579073,35.2846484 76.5655495,35.2846484 C76.5542259,35.4564945 76.5380493,35.6030691 76.5380493,35.7496438 C76.5356229,37.0427014 76.5283434,38.3357591 76.5420935,39.6279743 C76.5453288,39.9185964 76.4555488,40.0045195 76.1829733,39.9986228 C75.5108363,39.9809327 74.8378904,39.9935685 74.1463415,39.9935685 L74.1463415,27.3418207 Z" id="Fill-20" fill="#1D1D1B"></path>
                    <g id="Group-24" transform="translate(56.585366, 27.317073)">
                        <mask id="mask-4" fill="white">
                            <use xlink:href="#path-3"></use>
                        </mask>
                        <g id="Clip-23"></g>
                        <path d="M2.88758537,6.47059146 C2.8582561,6.47851829 2.82892683,6.48485976 2.79959756,6.48961585 C2.93910976,7.13327439 3.0112439,7.79912805 3.23319512,8.41028659 C3.72941463,9.78796951 4.85660976,10.55925 6.25331707,10.5806524 C7.71819512,10.6020549 8.82478049,9.91321341 9.38520732,8.52364024 C9.9432561,7.13882317 9.94008537,5.71516463 9.34795122,4.33985976 C8.78910976,3.0422378 7.75941463,2.37717683 6.33654878,2.3779688 C4.91685366,2.3787622 3.91410976,3.05254268 3.31008537,4.32955488 C2.98984146,5.0065061 2.886,5.72784756 2.88758537,6.47059146 M12.1706951,6.5062622 C12.1453293,8.16138415 11.7418537,9.68809146 10.5916707,10.9278476 C9.24965854,12.3737012 7.53508537,12.8271159 5.62709756,12.6447988 C2.64423171,12.3633963 0.710085366,10.0883963 0.515085366,7.08254268 C0.418378049,5.58675 0.621304878,4.14010366 1.44886585,2.85357927 C2.76313415,0.810042683 4.71471951,0.0926646341 7.04917073,0.313823171 C10.0177683,0.596810976 11.8322195,2.82266463 12.1080732,5.56851829 C12.1389878,5.88083537 12.150878,6.19315244 12.1706951,6.5062622" id="Fill-22" fill="#1D1D1B" mask="url(#mask-4)"></path>
                    </g>
                    <path d="M104.928365,29.4796511 L104.928365,37.7094618 C105.785638,37.7094618 106.619584,37.7388599 107.45103,37.7010623 C108.871488,37.6372262 109.997023,36.7216829 110.406914,35.3492078 C110.682675,34.4286248 110.715999,33.4862031 110.556042,32.5446214 C110.317771,31.1435881 109.620456,30.0239374 108.190835,29.7114767 C107.145278,29.4838508 106.037238,29.5476869 104.928365,29.4796511 M102.439024,40 L102.439024,27.3419834 C102.573156,27.331904 102.693957,27.3184648 102.815591,27.3184648 C104.220219,27.3167849 105.626514,27.3167849 107.031142,27.3176249 C108.175005,27.3184648 109.274714,27.5166926 110.283614,28.0903771 C111.699905,28.8950473 112.566343,30.1238912 112.92958,31.7029935 C113.306147,33.3324926 113.26949,34.9527524 112.621328,36.5125358 C111.83237,38.4141781 110.378589,39.5892654 108.38245,39.8093318 C106.430467,40.0243585 104.445993,39.9487632 102.439024,40" id="Fill-25" fill="#1D1D1B"></path>
                    <path d="M151.727951,33.6427821 C151.727951,34.8989216 151.73546,36.1559048 151.722945,37.4120443 C151.720442,37.6929674 151.798871,37.7967318 152.089224,37.7874521 C152.797585,37.7655181 153.509284,37.8009499 154.216811,37.7629873 C155.633534,37.6862185 156.62474,36.9716784 157.154551,35.6370829 C157.52667,34.6947673 157.531676,33.7094275 157.420708,32.7198696 C157.212955,30.868983 155.95309,29.661773 154.121696,29.5782553 C153.451714,29.5470417 152.778395,29.5807862 152.107579,29.5546342 C151.799705,29.5453544 151.719607,29.6550241 151.722945,29.9511322 C151.736294,31.1819634 151.727951,32.4119509 151.727951,33.6427821 M149.268293,39.9783146 L149.268293,27.373895 C149.34839,27.3595535 149.430991,27.3308707 149.514425,27.3308707 C151.123883,27.3325579 152.735843,27.2870028 154.343632,27.3528046 C156.472889,27.4396968 158.172456,28.3432061 159.23625,30.2852029 C160.357613,32.3318077 160.351773,36.1187858 158.492845,38.1400822 C157.465763,39.2587129 156.190045,39.8905789 154.709911,39.9572243 C152.916063,40.0390548 151.114705,39.9783146 149.268293,39.9783146" id="Fill-27" fill="#1D1D1B"></path>
                    <g id="Group-31" transform="translate(164.878049, 27.317073)">
                        <mask id="mask-6" fill="white">
                            <use xlink:href="#path-5"></use>
                        </mask>
                        <g id="Clip-30"></g>
                        <path d="M8.36748559,12.4180122 L0.326953437,12.4180122 L0.326953437,0.539658537 C0.457064302,0.530939024 0.574403548,0.516670732 0.691742794,0.516670732 C3.10557871,0.516670732 5.52021286,0.526182927 7.93404878,0.512690727 C8.29325055,0.511121951 8.39701996,0.622890244 8.37466962,0.965329268 C8.34673171,1.38465854 8.35072284,1.80795122 8.37307317,2.22886585 C8.38903769,2.5380122 8.26451441,2.61728049 7.97236364,2.61569512 C6.34637694,2.60618293 4.72118847,2.62362195 3.09520177,2.60776829 C2.75914856,2.60459756 2.65537916,2.69971951 2.66815078,3.03264634 C2.69369401,3.64697561 2.67453659,4.26209756 2.67613304,4.87563415 C2.67693126,4.9937439 2.69129933,5.11026829 2.70087805,5.2680122 L3.15905987,5.2680122 C4.59027938,5.26959756 6.02229712,5.27910976 7.4527184,5.26721951 C7.77121064,5.26484146 7.91489135,5.33063415 7.88854989,5.68179268 C7.85662084,6.1130122 7.86220843,6.54978049 7.88695344,6.98258537 C7.90531264,7.29331707 7.78318404,7.36386585 7.49023503,7.3614878 C6.03506874,7.35039024 4.57910421,7.37020732 3.12393792,7.35276829 C2.78389357,7.34880488 2.65378271,7.42569512 2.66735255,7.78715854 C2.69529047,8.50929268 2.68810643,9.2330122 2.668949,9.95673171 C2.66176497,10.2531951 2.74956984,10.3491098 3.05608869,10.3467317 C4.68207539,10.3332561 6.30726386,10.3506951 7.93325055,10.3388049 C8.2549357,10.3356341 8.3922306,10.4125244 8.37466962,10.7589268 C8.34752993,11.2979512 8.36748559,11.838561 8.36748559,12.4180122" id="Fill-29" fill="#1D1D1B" mask="url(#mask-6)"></path>
                    </g>
                    <path d="M89.7560976,39.9603687 L89.7560976,27.3188971 C90.5105519,27.3188971 91.2444824,27.3104661 91.977592,27.3298574 C92.04491,27.3315436 92.1573804,27.4866744 92.1647689,27.5777294 C92.1885765,27.8846185 92.1746203,28.194037 92.1746203,28.500083 L92.1746203,37.2683439 C92.1746203,37.7632448 92.1762622,37.7632448 92.6712959,37.7632448 C94.155576,37.7640879 95.641498,37.7708327 97.1265991,37.7565 C97.4434863,37.7531276 97.5781223,37.8273206 97.5592405,38.1814234 C97.5321491,38.6780105 97.5444633,39.1796562 97.5551357,39.6787726 C97.5600614,39.905567 97.4927434,40.0008376 97.2587723,40 C94.8246514,39.9924065 92.3913515,39.9949358 89.9572306,39.9932496 C89.8973012,39.9932496 89.8373717,39.9747014 89.7560976,39.9603687" id="Fill-32" fill="#1D1D1B"></path>
                    <mask id="mask-8" fill="white">
                        <use xlink:href="#path-7"></use>
                    </mask>
                    <g id="Clip-35"></g>
                    <polygon id="Fill-34" fill="#1D1D1B" mask="url(#mask-8)" points="140.487805 40 142.439024 40 142.439024 27.3170732 140.487805 27.3170732"></polygon>
                    <polygon id="Fill-36" fill="#1D1D1B" mask="url(#mask-8)" points="30.2439024 0 0.0664993457 0 0.0664993457 0.0520801042 0 0.0107466882 0 9.87041974 8.68813952 16.1059789 0.397333591 16.1059789 0.397333591 16.2250191 0.330834245 16.185339 0.165417123 32.176411 11.9424513 40 12.1070371 25.5795978 22.9522492 25.5795978 22.9522492 15.9224585 15.3588551 9.86215306 30.2439024 9.86215306"></polygon>
                </g>
            </g>
        </g>
    </g>
</svg>